<?xml version="1.0" encoding="utf-8"?>
<!-- Generator: Adobe Illustrator 24.0.2, SVG Export Plug-In . SVG Version: 6.00 Build 0)  -->
<svg version="1.1" id="Layer_1" xmlns="http://www.w3.org/2000/svg" xmlns:xlink="http://www.w3.org/1999/xlink" x="0px" y="0px"
	 viewBox="0 0 1094 500" style="enable-background:new 0 0 1094 500;" xml:space="preserve">
<style type="text/css">
	.st0{display:none;fill:none;stroke:#000000;stroke-miterlimit:10;}
	.st1{fill:#4486FF;}
</style>
<line class="st0" x1="1540.5" y1="190.5" x2="2117.5" y2="192.5"/>
<g>
	<path class="st1" d="M73.96,106.46c-62.81,66.72-80.09,164.79-43.49,248.8c20.43,46.89,59.99,93.46,136.17,116.25
		c-4.74-1.49-94.61-31.63-116.6-177.1c-2.65-17.54-2.98-35.13-1.11-52.36h117.91v126.62h37.46V26.5
		C204.3,26.5,131.35,45.49,73.96,106.46z M55.14,209.57c10.41-37.55,31.6-71.86,61.99-98.06c16.56-14.27,33.94-24.72,49.7-29.56
		v127.62H55.14z"/>
	<path class="st1" d="M217.29,81.95l152.35,214.29c0,0,71.43-160.34-114.89-269.73c0,0,218.28,41.96,152.35,342.16l-37.46,0.5
		L261.24,209.82l-6.49-0.5v159.84h-37.46V81.95z"/>
</g>
<path class="st1" d="M254.5,26.5c54.92-2.48,109.83-3.78,164.75-4.66c54.92-0.88,109.83-1.34,164.75-1.33
	c54.92-0.03,109.83,0.45,164.75,1.32C803.67,22.7,858.58,24,913.5,26.5c-54.92,2.5-109.83,3.8-164.75,4.68
	C693.83,32.05,638.92,32.53,584,32.5c-54.92,0.01-109.83-0.46-164.75-1.33C364.33,30.28,309.42,28.98,254.5,26.5z"/>
<g>
	<path class="st1" d="M426.5,145.5c54.92-2.48,109.83-3.78,164.75-4.66c54.92-0.88,109.83-1.34,164.75-1.33
		c54.92-0.03,109.83,0.45,164.75,1.32c54.92,0.88,109.83,2.18,164.75,4.68c-54.92,2.5-109.83,3.8-164.75,4.68
		c-54.92,0.87-109.83,1.35-164.75,1.32c-54.92,0.01-109.83-0.46-164.75-1.33C536.33,149.28,481.42,147.98,426.5,145.5z"/>
	<path class="st1" d="M425.5,369.5c54.92-2.48,109.83-3.78,164.75-4.66c54.92-0.88,109.83-1.34,164.75-1.33
		c54.92-0.03,109.83,0.45,164.75,1.32c54.92,0.88,109.83,2.18,164.75,4.68c-54.92,2.5-109.83,3.8-164.75,4.68
		c-54.92,0.87-109.83,1.35-164.75,1.32c-54.92,0.01-109.83-0.46-164.75-1.33C535.33,373.28,480.42,371.98,425.5,369.5z"/>
</g>
<path class="st1" d="M166.5,471.5c62.25-2.48,124.5-3.78,186.75-4.66c62.25-0.88,124.5-1.34,186.75-1.33
	c62.25-0.03,124.5,0.45,186.75,1.32C789,467.7,851.25,469,913.5,471.5c-62.25,2.5-124.5,3.8-186.75,4.68
	c-62.25,0.87-124.5,1.35-186.75,1.32c-62.25,0.01-124.5-0.46-186.75-1.33C291,475.28,228.75,473.98,166.5,471.5z"/>
<g>
	<path class="st1" d="M500.19,278.23h-20.98l-4.73,18.15h-16.94l23.8-83.92h16.83l23.8,83.92h-17L500.19,278.23z M482.55,265.43
		h14.29l-6.97-26.63h-0.35L482.55,265.43z"/>
	<path class="st1" d="M528.72,296.38v-83.92h24.03c8.76,0,15.58,1.91,20.46,5.74c4.88,3.82,7.32,9.54,7.32,17.15
		c0,3.96-0.89,7.48-2.68,10.58c-1.79,3.09-4.43,5.39-7.92,6.89c4.69,0.96,8.17,3.21,10.46,6.74c2.29,3.54,3.43,7.67,3.43,12.39
		c0,8.03-2.33,14.11-7,18.24c-4.67,4.13-11.33,6.2-19.97,6.2H528.72z M544.97,247.97h8.53c3.5-0.08,6.17-1.06,8.01-2.94
		c1.84-1.88,2.77-4.61,2.77-8.18c0-4-0.96-6.94-2.88-8.82c-1.92-1.88-4.8-2.82-8.65-2.82h-7.78V247.97z M544.97,259.21v24.49h11.87
		c3.54,0,6.21-0.99,8.01-2.97c1.8-1.98,2.71-4.91,2.71-8.79c0-4-0.83-7.09-2.48-9.28c-1.65-2.19-4.23-3.34-7.72-3.46h-0.58H544.97z"
		/>
	<path class="st1" d="M653.09,212.47v54.81c0,9.53-2.74,16.96-8.21,22.3c-5.47,5.34-12.61,8.01-21.41,8.01
		c-8.76,0-15.87-2.68-21.32-8.04c-5.46-5.36-8.18-12.78-8.18-22.28v-54.81h16.19v54.81c0,5.73,1.19,10.1,3.57,13.11
		c2.38,3.02,5.63,4.52,9.74,4.52c4.19,0,7.46-1.5,9.83-4.5c2.36-3,3.54-7.38,3.54-13.14v-54.81H653.09z"/>
	<path class="st1" d="M750.95,296.38H734.7l-26.63-53.54l-0.35,0.06v53.48h-16.25v-83.92h16.25l26.63,53.6l0.35-0.06v-53.54h16.25
		V296.38z"/>
	<path class="st1" d="M802.13,278.23h-20.98l-4.73,18.15h-16.94l23.8-83.92h16.83l23.8,83.92h-17L802.13,278.23z M784.49,265.43
		h14.29l-6.97-26.63h-0.35L784.49,265.43z"/>
	<path class="st1" d="M851.46,248.95h0.35l14.47-36.48h17.75l-24.49,54v29.91h-16.2v-30.95l-24.03-52.97h17.75L851.46,248.95z"/>
	<path class="st1" d="M932.9,259.32h-25.65v24.38h30.72v12.68H891v-83.92h46.86v12.74h-30.6v21.44h25.65V259.32z"/>
	<path class="st1" d="M984.71,274.71h0.35l15.73-62.25h21.27v83.92h-16.14v-52.85l-0.35-0.06l-15.16,52.91h-10.89l-15.04-52.5
		l-0.35,0.06v52.45h-16.2v-83.92h21.15L984.71,274.71z"/>
</g>
</svg>
